Coordinates
version=1
nRows=14
nColumns=33
inDegrees=yes

Units are S.I. units (second, meters, Newtons, ...)
Angles are in degrees.

endheader
time	ground_thorax_rot_x	ground_thorax_rot_y	ground_thorax_rot_z	ground_thorax_tx	ground_thorax_ty	ground_thorax_tz	clav_prot_r	clav_elev_r	scapula_abduction_r	scapula_elevation_r	scapula_upward_rot_r	scapula_winging_r	shoulder_elv_r	plane_of_elev_r	axial_rot_r	elbow_flexion_r	pro_sup_r	wrist_flex_r	wrist_dev_r	clav_prot_l	clav_elev_l	scapula_abduction_l	scapula_elevation_l	scapula_upward_rot_l	scapula_winging_l	shoulder_elv_l	plane_of_elev_l	axial_rot_l	elbow_flexion_l	pro_sup_l	wrist_flex_l	wrist_dev_l
      2.88000000	     38.91128675	     -6.32149746	     -1.49859628	   -201.46604143	    877.13882302	     -6.07022189	     11.99378520	     35.76419173	     33.58024194	     45.00000000	    -45.00000000	   1362.64816090	  -3342.36345762	    145.78984515	    179.99999979	    732.42057305	     65.96707276	     28.14328141	     11.87117628	     12.33763614	    -45.00000000	    -40.84731900	     45.00000000	    -45.00000000	  -3865.00084605	  -2613.30692585	    137.40187985	   -179.99999979	   1090.72582115	   -307.00868542	     10.46344515	    -24.99999983
      2.89000000	     38.91345765	     -6.27252293	     -1.50800128	   -199.59115013	    878.92509391	     -6.02652554	     11.81007886	     35.76849970	     33.68090012	     45.00000000	    -45.00000000	   1362.50115330	  -3342.01713766	    145.67955727	    179.99999979	    732.65059348	     66.38404258	     28.20544629	     11.75642662	     12.31016932	    -45.00000000	    -41.12342930	     45.00000000	    -45.00000000	  -3864.86634239	  -2612.93645603	    137.30171568	   -179.99999979	   1090.97478800	   -306.61796759	     10.20206745	    -24.99999983
      2.90000000	     38.95528936	     -6.26350872	     -1.54477712	   -197.62934063	    880.83240007	     -5.97438054	     11.94821081	     35.76682757	     33.95693992	     45.00000000	    -45.00000000	   1362.15847624	  -3341.83340429	    145.50373253	    179.99999979	    732.82090091	     66.85922288	     28.26328006	     11.69382365	     12.48395829	    -45.00000000	    -41.13488983	     45.00000000	    -45.00000000	  -3864.68959881	  -2612.42865725	    136.97478352	   -179.99999979	   1091.13028310	   -306.21144184	      9.86193196	    -24.99999983
      2.91000000	     39.03887130	     -6.50878322	     -1.67069970	   -195.58210747	    882.81647555	     -5.91498373	     12.80713411	     36.02066458	     34.67928115	     45.00000000	    -45.00000000	   1361.70028995	  -3341.67132132	    145.36853242	    179.99999979	    732.97896075	     67.46402277	     28.33406142	     11.66468803	     12.50186021	    -45.00000000	    -41.00656198	     45.00000000	    -45.00000000	  -3864.68889861	  -2612.05673542	    136.75680246	   -179.99999979	   1091.33095584	   -305.72883852	      9.48830894	    -24.99999983
      2.92000000	     39.07660075	     -6.42953558	     -1.67108578	   -193.42610361	    884.85298659	     -5.85014076	     12.81901974	     36.05327463	     34.92618794	     45.00000000	    -45.00000000	   1361.41237882	  -3341.39844010	    145.22727101	    179.99999979	    733.20188990	     67.95613315	     28.37350678	     11.55617783	     12.47884134	    -45.00000000	    -41.15532716	     45.00000000	    -45.00000000	  -3864.59200784	  -2611.58832537	    136.59340095	   -179.99999979	   1091.57857382	   -305.34160060	      9.16057458	    -24.99999983
      2.93000000	     39.11411087	     -6.35770000	     -1.60312824	   -191.15878515	    886.89922563	     -5.78284565	     12.69168192	     36.01382184	     35.24820212	     45.00000000	    -45.00000000	   1361.09167561	  -3341.12395267	    145.06524911	    179.99999979	    733.41099164	     68.36168390	     28.39420424	     11.46823891	     12.58157297	    -45.00000000	    -41.24609008	     45.00000000	    -45.00000000	  -3864.41969261	  -2611.17568263	    136.38227157	   -179.99999979	   1091.75665688	   -305.06402071	      8.85981099	    -24.99999983
      2.94000000	     39.13018732	     -6.24015305	     -1.56602721	   -188.77287316	    888.91833788	     -5.71528863	     12.83703942	     36.05951362	     35.51865724	     45.00000000	    -45.00000000	   1360.81942943	  -3340.82687438	    144.93976796	    179.99999979	    733.64256628	     68.71178709	     28.39946780	     11.37229182	     12.53825755	    -45.00000000	    -41.40043026	     45.00000000	    -45.00000000	  -3864.28808013	  -2610.66261944	    136.22189343	   -179.99999979	   1091.96342767	   -304.87825018	      8.56896470	    -24.99999983
      2.95000000	     39.14770199	     -5.93088082	     -1.42621799	   -186.26668022	    890.87304800	     -5.64851016	     12.06217657	     35.85490527	     35.65191741	     45.00000000	    -45.00000000	   1360.56320102	  -3340.53679446	    144.82298762	    179.99999979	    733.84668696	     68.93272660	     28.34138102	     11.23106706	     12.71729813	    -45.00000000	    -41.68129671	     45.00000000	    -45.00000000	  -3864.04788924	  -2610.20027993	    135.94890467	   -179.99999979	   1092.09794180	   -304.79721567	      8.40331547	    -24.99999983
      2.96000000	     39.20504041	     -5.96520279	     -1.39707601	   -183.64432728	    892.72571431	     -5.58195810	     12.88575426	     36.06244546	     36.18210511	     45.00000000	    -45.00000000	   1360.17514041	  -3340.24156796	    144.64442077	    179.99999979	    734.06103342	     69.16375044	     28.31387268	     11.20390136	     12.62135169	    -45.00000000	    -41.70422189	     45.00000000	    -44.89725779	  -3864.01517279	  -2609.80210000	    135.91400547	   -179.99999979	   1092.36268060	   -304.82547242	      8.08013821	    -24.99999983
      2.97000000	     39.17787675	     -5.89144212	     -1.42652639	   -180.90932649	    894.44258696	     -5.51344819	     12.76033514	     36.04376712	     36.47510622	     45.00000000	    -45.00000000	   1359.93184807	  -3339.95480758	    144.40860830	    179.99999979	    734.29757295	     69.29292981	     28.24041528	     11.10125285	     12.64240026	    -45.00000000	    -42.01200095	     45.00000000	    -43.96086951	  -3863.82582211	  -2609.56752102	    135.88334471	   -179.99999979	   1092.35673274	   -304.90651716	      7.96497517	    -24.99999983
      2.98000000	     39.17220992	     -5.73846859	     -1.44312198	   -178.07118295	    895.98938255	     -5.43998845	     13.30915724	     36.18494367	     36.91626784	     45.00000000	    -45.00000000	   1359.67664402	  -3339.77360059	    144.40338967	    179.99999979	    734.52752675	     69.37788911	     28.13794749	     10.97940825	     12.35754646	    -45.00000000	    -42.27122151	     45.00000000	    -43.08918337	  -3863.75458465	  -2609.29978142	    135.90798783	   -179.99999979	   1092.42382799	   -305.13574658	      7.83214770	    -24.99999983
      2.99000000	     39.15306815	     -5.65648349	     -1.42769899	   -175.13846187	    897.33595043	     -5.35801529	     13.50542574	     36.25775305	     37.34808517	     45.00000000	    -45.00000000	   1359.39887156	  -3339.53043318	    144.22283887	    179.99999979	    734.70419650	     69.41010224	     28.02720535	     10.89690241	     12.29570351	    -45.00000000	    -42.49449559	     45.00000000	    -42.18170774	  -3863.63417662	  -2609.07833070	    135.90379651	   -179.99999979	   1092.43931789	   -305.48669051	      7.72550964	    -24.99999983
      3.00000000	     39.11123241	     -5.52020103	     -1.40601845	   -172.11831120	    898.45422732	     -5.26366025	     13.62213315	     36.29936299	     37.74092616	     45.00000000	    -45.00000000	   1359.17685718	  -3339.32097093	    144.13110466	    179.99999979	    734.97138186	     69.36870458	     27.84268292	     10.70946280	     12.13692678	    -45.00000000	    -42.80527929	     45.00000000	    -41.05344846	  -3863.52443647	  -2608.95356853	    135.95599535	   -179.99999979	   1092.37455144	   -305.96474327	      7.77276955	    -24.99999983
      3.01000000	     39.08671766	     -5.43378737	     -1.40321388	   -169.02178588	    899.31723903	     -5.15304900	     13.70332800	     36.36235967	     38.17473100	     45.00000000	    -45.00000000	   1358.84421133	  -3339.09551393	    143.88423365	    179.99999979	    735.15386609	     69.32939581	     27.72763693	     10.64439461	     12.21774769	    -45.00000000	    -43.06191315	     45.00000000	    -40.15494808	  -3863.47465938	  -2608.77203150	    135.96377841	   -179.99999979	   1092.38411902	   -306.58110153	      7.71650908	    -24.99999983
